# xmcd
#
# Track frame offsets:
#	150
#	18629
#	39377
#	56550
#	76121
#	90425
#	105449
#	124431
#	145401
#	172640
#	195947
#
# Disc length: 2780 seconds
#
# Revision: 0
# Processed by: cddbd v1.5.2PL0 Copyright (c) Steve Scherf et al.
# Submitted via: audiograbber 1.83.01
#
DISCID=7f0ada0b
DTITLE=Adrian Kosky - The High Side Of The Low End
DYEAR=2006
DGENRE=Acoustic
TTITLE0=Dodgy Train
TTITLE1=Hair In A Can
TTITLE2=I Hate To Fight
TTITLE3=Hillbilly Genocide
TTITLE4=Road Trip
TTITLE5=The High Side Of The Low End
TTITLE6=River Song
TTITLE7=Table Hill Rd.
TTITLE8=Small Country Town
TTITLE9=Pick Your Worries Well
TTITLE10=Zucchini
EXTD=
EXTT0=
EXTT1=
EXTT2=
EXTT3=
EXTT4=
EXTT5=
EXTT6=
EXTT7=
EXTT8=
EXTT9=
EXTT10=
PLAYORDER=
